PathFileType	4	(X/Y/Z)	C:\Users\Basilio\Documents\Thesis Gigler\squatting_fais\c3dfiles\058\SJ_pre4\markers_experimental.trc
DataRate	CameraRate	NumFrames	NumMarkers	Units	OrigDataRate	OrigDataStartFrame	OrigNumFrames
200.000000	200.000000	4	61	mm	200.000000	322	1290
Frame#	Time	FHD			LBHD			RBHD			C7			T10			CLAV			LSHO			LUUPA			LMUPA			LDUPA			LLEP			LMEP			LRAD			LUL			LRFIN			RSHO			RUPA1			RMUPA			RDUPA			RLEP			RMEP			RRAD			RUL			RUFIN			LASI			RASI			USACR			LSACR			RSACR			LTHI1			LTHI2			LTHI3			LTHI4			LLFC			LMFC			LTIB1			LTIB2			LTIB3			LTIB4			LLMAL			LMMAL			LHEE			LMT1			LMT2			LMT5			RTHI			RTHI2			RTHI3			RTHI4			RLFC			RMFC			RTIB1			RTIB2			RTIB3			RTIB4			RLMAL			RMMAL			RHEE			RMT1			RMT2			RMT5			
		X1	Y1	Z1	X2	Y2	Z2	X3	Y3	Z3	X4	Y4	Z4	X5	Y5	Z5	X6	Y6	Z6	X7	Y7	Z7	X8	Y8	Z8	X9	Y9	Z9	X10	Y10	Z10	X11	Y11	Z11	X12	Y12	Z12	X13	Y13	Z13	X14	Y14	Z14	X15	Y15	Z15	X16	Y16	Z16	X17	Y17	Z17	X18	Y18	Z18	X19	Y19	Z19	X20	Y20	Z20	X21	Y21	Z21	X22	Y22	Z22	X23	Y23	Z23	X24	Y24	Z24	X25	Y25	Z25	X26	Y26	Z26	X27	Y27	Z27	X28	Y28	Z28	X29	Y29	Z29	X30	Y30	Z30	X31	Y31	Z31	X32	Y32	Z32	X33	Y33	Z33	X34	Y34	Z34	X35	Y35	Z35	X36	Y36	Z36	X37	Y37	Z37	X38	Y38	Z38	X39	Y39	Z39	X40	Y40	Z40	X41	Y41	Z41	X42	Y42	Z42	X43	Y43	Z43	X44	Y44	Z44	X45	Y45	Z45	X46	Y46	Z46	X47	Y47	Z47	X48	Y48	Z48	X49	Y49	Z49	X50	Y50	Z50	X51	Y51	Z51	X52	Y52	Z52	X53	Y53	Z53	X54	Y54	Z54	X55	Y55	Z55	X56	Y56	Z56	X57	Y57	Z57	X58	Y58	Z58	X59	Y59	Z59	X60	Y60	Z60	X61	Y61	Z61	

323	1.61	-9.296564102172853	1520.431884765625	-820.281677246094	-165.7248687744141	1467.437377929688	-895.255554199219	2.656949043273926	1529.1494140625	-961.846618652344	-202.4042053222657	1386.056030273438	-916.6359863281252	-402.4706420898439	1152.30029296875	-909.2647705078127	-96.00005340576175	1262.403198242188	-893.8892822265627	-60.26445770263673	1305.251831054688	-1057.385864257813	-216.3322143554688	1273.596435546875	-1232.577880859375	-215.2805938720704	1223.795776367188	-1236.68017578125	-264.0497131347657	1237.783325195313	-1269.829833984375	-331.4606018066407	1194.2666015625	-1302.925537109375	-383.8727111816407	1228.66455078125	-1259.18603515625	-429.201141357422	1029.844604492188	-1106.88525390625	-361.5444030761719	1006.801391601563	-1086.348999023438	-424.0573120117189	966.366882324219	-1158.097290039063	-89.49056243896486	1329.767700195313	-731.0119628906251	-264.4376220703126	1308.251098632813	-579.2451171875001	-264.5142517089844	1257.051513671875	-576.3283691406251	-312.5950317382813	1268.232666015625	-544.0559082031251	-373.6994934082032	1240.699829101563	-513.8589477539064	-434.3112792968751	1256.131713867188	-579.5711059570314	-396.4542846679689	1038.669799804688	-690.8466186523439	-394.1961364746095	986.6216430664065	-628.9390869140626	-346.1511535644532	985.8059692382815	-723.5776367187501	-362.5527648925782	887.9440917968752	-1016.464416503906	-357.4433898925782	891.5757446289065	-790.1128540039065	-487.8626098632814	1052.1962890625	-895.7476196289065	-511.235076904297	1028.124389648438	-922.5347900390627	-511.0537719726564	1029.349365234375	-864.9747314453127	-341.8160400390626	708.3811035156251	-1145.598022460938	-275.5379943847657	656.1312866210939	-1162.714233398438	-234.4986724853516	674.7494506835939	-1141.078369140625	-273.2868041992188	594.2565307617189	-1160.598510742188	-230.2561340332032	513.5754394531251	-1166.211547851563	-193.3052978515626	502.0325622558595	-1046.796752929688	-188.8346862792969	374.0218505859376	-1146.482543945313	-258.5964355468751	357.6213684082032	-1195.383178710938	-222.0572357177735	338.7487792968751	-1177.036987304688	-244.4840545654297	259.3661193847657	-1154.168212890625	-356.1071166992188	89.92663574218751	-1165.490966796875	-324.4411315917969	98.01568603515628	-1079.500244140625	-420.4179077148439	50.89629364013673	-1113.050903320313	-194.1201934814454	64.11771392822267	-1118.0380859375	-195.6473541259766	61.9822235107422	-1164.873779296875	-245.1210174560547	35.52722167968751	-1215.57421875	-416.0551147460939	751.9140625000001	-667.3809204101564	-355.1352539062501	727.3049316406251	-654.9179687500001	-327.2920227050782	742.9215698242189	-657.6806640625001	-336.8688049316407	643.9778442382814	-653.8775024414064	-249.0517578125001	507.0748291015626	-641.3684692382814	-210.2260742187501	489.219207763672	-765.6755371093751	-228.5663146972657	306.1044921875001	-706.2993774414064	-286.3507385253907	244.735824584961	-633.8771362304689	-253.6885986328126	229.7268066406251	-664.5050659179689	-271.7602233886719	184.9153594970703	-696.8785400390626	-351.4945983886719	93.06649780273439	-647.0920410156251	-315.2288208007813	103.6034927368164	-732.8496704101564	-414.3071289062501	48.53158187866212	-709.4090576171876	-197.4474182128907	58.41174316406251	-686.0372314453126	-202.0028686523438	63.549861907959	-634.3442382812501	-251.2746887207032	27.8758716583252	-587.6925048828126	
324	1.615	-7.957027912139894	1515.345825195313	-820.356140136719	-164.4978179931641	1462.8642578125	-895.4019165039065	3.879502296447755	1523.980102539063	-961.8509521484377	-201.2540588378907	1381.667846679688	-916.6430664062502	-402.5735778808595	1148.929077148438	-909.1834106445315	-95.69259643554689	1257.7109375	-893.932067871094	-59.19043350219728	1300.091552734375	-1057.5078125	-215.4727325439454	1269.250244140625	-1232.752319335938	-214.6473236083985	1219.340576171875	-1236.848022460938	-263.7046508789063	1233.692626953125	-1269.910766601563	-331.1033020019532	1190.67626953125	-1303.022216796875	-383.3234558105469	1225.302978515625	-1259.300415039063	-429.9517517089845	1026.98095703125	-1107.0400390625	-362.4068908691407	1003.459594726563	-1086.470703125	-424.9791259765626	963.3508911132815	-1158.1064453125	-88.48806762695314	1324.7724609375	-731.1364746093751	-263.6150512695313	1304.082153320313	-579.2473754882814	-264.0257263183594	1252.74365234375	-576.4876708984376	-311.8285827636719	1264.391967773438	-544.1963500976564	-372.9814147949219	1236.824829101563	-513.8814697265626	-433.4829406738282	1252.794677734375	-579.6477050781251	-396.7299804687501	1035.311279296875	-690.8704833984376	-394.4795227050782	983.2398681640627	-629.0017089843751	-346.8099060058594	982.446716308594	-723.9263916015626	-363.7350158691407	884.7278442382815	-1016.726623535156	-358.2821350097657	888.2723388671877	-790.3836669921877	-488.5083312988282	1049.19140625	-895.767761230469	-512.0003662109376	1025.45166015625	-922.4470825195315	-511.5410766601564	1026.423583984375	-864.9490966796877	-342.2515563964844	706.8952636718751	-1145.6279296875	-275.9636230468751	655.5570678710939	-1162.796508789063	-234.6167297363282	674.0907592773439	-1141.185180664063	-272.8388061523438	593.4705200195314	-1161.07958984375	-228.9474029541016	512.7668457031251	-1166.658813476563	-192.4827728271485	501.5706481933595	-1047.213134765625	-188.7005615234375	373.5467834472657	-1147.110107421875	-257.7680969238282	357.3468933105469	-1195.553344726563	-221.2228546142579	338.2906494140626	-1177.436279296875	-243.8694763183594	259.0553283691407	-1154.4189453125	-356.1618041992188	89.87313842773439	-1165.584228515625	-324.4226684570313	98.02764892578128	-1079.722534179688	-420.5102844238282	50.81024551391603	-1113.10888671875	-194.2468872070313	64.20212554931642	-1118.118286132813	-195.6123962402344	61.96117401123048	-1165.01513671875	-245.2078552246094	35.46372604370118	-1215.636474609375	-416.7153930664064	749.4259033203126	-667.3327026367189	-355.9542846679688	725.0872192382814	-654.5775756835939	-328.1327819824219	741.0595703125001	-657.3909912109376	-336.3400573730469	642.3933105468751	-654.1931152343751	-247.6209106445313	506.3166503906251	-641.0535888671876	-208.2460327148438	489.0069580078126	-765.8453979492189	-227.7190704345704	305.5868225097657	-706.1331787109376	-285.6580810546876	244.4876403808594	-633.8655395507814	-252.9233856201172	229.4351806640626	-664.4841918945314	-270.9068908691407	184.476303100586	-696.8838500976564	-351.3144531250001	93.05275726318361	-647.2536621093751	-315.0351867675782	103.4856796264649	-732.9476928710939	-414.2771911621095	48.56496429443361	-709.4295043945314	-197.3697509765626	58.33765029907228	-686.0134887695314	-201.9298095703126	63.53021240234376	-634.3391113281251	-251.2704772949219	27.87615394592286	-587.7207031250001	
325	1.62	-6.77373266220093	1510.280883789063	-820.2770996093752	-163.2044372558594	1457.732666015625	-895.440856933594	5.059467792510987	1518.974853515625	-961.870788574219	-200.1791229248047	1377.183959960938	-916.6488037109377	-402.634246826172	1145.711303710938	-909.1944580078127	-94.9781951904297	1252.659057617188	-894.0623168945315	-58.78441238403322	1295.01416015625	-1057.497680664063	-214.4590301513672	1264.985473632813	-1233.046630859375	-214.1307983398438	1215.209716796875	-1236.923095703125	-262.9815063476563	1229.60205078125	-1270.082641601563	-330.9166259765626	1187.076293945313	-1303.16064453125	-382.9613037109376	1222.061279296875	-1259.266967773438	-430.5340881347657	1023.892517089844	-1107.146240234375	-363.3626403808594	1000.150207519531	-1086.604736328125	-426.2996520996095	960.3555297851565	-1158.2353515625	-86.97103118896486	1319.834350585938	-731.4389648437501	-262.4968261718751	1299.8828125	-579.4333496093751	-262.9720458984376	1248.48388671875	-576.6511230468751	-311.0694885253907	1260.123291015625	-544.4395751953126	-372.2374267578126	1233.562377929688	-513.9533081054689	-432.7929687500001	1249.468383789063	-579.6687622070314	-397.0900878906251	1031.740112304688	-690.8919677734376	-394.7266845703126	979.7524414062502	-629.1311035156251	-347.3886413574219	978.8106079101565	-724.0872802734376	-365.1362609863282	881.5496215820315	-1016.870178222656	-359.4543151855469	884.8682250976565	-790.4727783203127	-489.399139404297	1046.131103515625	-895.5894165039065	-512.8457641601564	1022.442260742188	-922.225280761719	-512.5637207031251	1023.593627929688	-864.7347412109377	-342.4753417968751	705.3925170898439	-1145.876342773438	-275.3777465820313	654.3722534179689	-1163.198974609375	-234.905746459961	673.4252319335939	-1141.308349609375	-272.3239440917969	592.4544067382814	-1161.4287109375	-227.9284210205079	512.4865112304689	-1166.795532226563	-191.3306732177735	500.6518554687501	-1047.436157226563	-187.2860260009766	373.0133666992188	-1147.373168945313	-257.1274414062501	356.8696289062501	-1195.934326171875	-220.3426513671876	337.9645996093751	-1177.793823242188	-243.6434478759766	258.6275329589844	-1154.62890625	-356.2039794921876	89.85157012939455	-1165.749877929688	-324.3876342773438	98.03738403320315	-1079.915649414063	-420.6299743652345	50.8184280395508	-1113.133911132813	-194.7470397949219	64.39904785156251	-1118.123168945313	-195.7660217285157	62.002986907959	-1165.126953125	-245.2592926025391	35.40282058715821	-1215.715209960938	-417.5043334960939	746.7737426757814	-667.4569091796876	-356.3235168457032	723.1973266601564	-654.6666259765626	-328.4967346191407	739.5717773437501	-657.2730102539064	-336.1109313964844	640.5761108398439	-654.2656860351564	-246.8211975097657	505.5579833984376	-640.8404541015626	-207.8465576171876	488.339813232422	-765.1171875000001	-226.824447631836	305.0946655273438	-705.9525756835939	-285.2916564941407	244.2690124511719	-633.7521362304689	-252.5267181396485	228.9488220214844	-664.3909301757814	-270.6655273437501	184.0930786132813	-696.8225708007814	-351.1233215332032	93.00885009765626	-647.3536376953126	-315.0194702148438	103.3539352416992	-733.0394287109376	-414.2388305664064	48.616024017334	-709.5112304687501	-197.2798004150391	58.25841522216798	-685.9329833984376	-201.9965057373047	63.47233200073244	-634.3807373046876	-251.3329467773438	27.82076072692872	-587.6831054687501	
326	1.625	-5.445563793182374	1505.20458984375	-820.4554443359377	-162.3850250244141	1452.953735351563	-895.4716796875002	6.243607521057131	1513.8759765625	-961.824890136719	-199.2356414794922	1372.696166992188	-916.6210937500002	-402.8459472656251	1142.222290039063	-909.0228271484377	-94.8339080810547	1247.696899414063	-894.2164306640627	-57.90510559082033	1289.997314453125	-1057.67138671875	-213.9814453125001	1260.61279296875	-1233.13720703125	-213.573471069336	1210.888671875	-1237.101928710938	-262.6300048828126	1225.606689453125	-1270.105346679688	-330.7748413085938	1183.58837890625	-1303.29248046875	-382.5958862304688	1218.641479492188	-1259.374267578125	-431.3237304687501	1020.844116210938	-1107.136840820313	-363.7617492675782	996.8491210937502	-1086.655639648438	-427.2910766601564	957.3023681640627	-1158.41943359375	-86.28911590576173	1314.638305664063	-731.6350097656251	-261.2616271972657	1295.62353515625	-579.6005249023439	-262.0188903808594	1244.414672851563	-577.2172241210939	-309.9136962890626	1256.559204101563	-544.4595336914064	-371.5759582519532	1230.07275390625	-514.1467285156251	-431.9591674804689	1246.214111328125	-579.7556762695314	-397.5545349121095	1028.332885742188	-691.1187133789064	-395.3256835937501	977.0671386718752	-629.2846069335939	-349.6536560058594	975.6550292968752	-725.7708129882814	-366.2074584960938	878.5090942382815	-1017.062866210938	-360.1505126953126	881.6743774414065	-790.6839599609377	-489.8918457031251	1043.230712890625	-895.4733886718752	-513.5661010742189	1019.384094238281	-922.189147949219	-513.2019653320314	1020.665405273438	-864.7170410156252	-343.0704345703126	703.8297119140626	-1145.970092773438	-275.3725891113282	653.3197631835939	-1163.321655273438	-234.842758178711	672.7707519531251	-1141.479736328125	-271.8495178222657	591.5050659179689	-1161.569213867188	-226.8905487060547	511.8650512695314	-1166.977416992188	-190.2882537841797	500.0680236816407	-1047.729614257813	-185.7690582275391	372.0403747558594	-1147.318115234375	-256.3513183593751	356.4773254394532	-1196.175659179688	-219.6351776123047	337.5630798339844	-1178.111938476563	-243.3481597900391	258.1589050292969	-1154.814086914063	-356.1838684082032	89.84937286376955	-1165.820678710938	-324.2983398437501	98.09464263916018	-1080.043334960938	-420.6984252929689	50.83870315551759	-1113.153930664063	-194.7670898437501	64.4276580810547	-1118.237182617188	-195.8069305419922	62.03862380981447	-1165.215576171875	-245.2599639892579	35.34079742431641	-1215.750122070313	-418.536346435547	744.3314819335939	-667.5311279296876	-356.9557495117188	721.1577758789064	-654.4215087890626	-329.1007080078126	737.6757202148439	-657.1478881835939	-335.9174804687501	638.7778930664064	-654.1700439453126	-245.4016418457032	504.8443603515626	-640.7094726562501	-206.5377655029297	487.7624511718751	-764.8381347656251	-226.0206146240235	304.6715698242188	-705.6593017578126	-284.7878112792969	243.9796142578126	-633.5617065429689	-251.9056854248047	228.6115417480469	-664.3897705078126	-270.3016357421876	183.6944732666016	-696.7381591796876	-351.1210327148438	92.97696685791017	-647.4590454101564	-314.8684692382813	103.2595138549805	-733.1570434570314	-414.2397766113282	48.63003540039064	-709.5703125000001	-197.1419525146485	58.15555572509767	-685.8713989257814	-201.9275665283204	63.38978576660158	-634.4924926757814	-251.3103790283204	27.79805564880372	-587.6545410156251	
